<svg width="56" height="56" viewBox="0 0 56 56" fill="none" xmlns="http://www.w3.org/2000/svg">
<g clip-path="url(#clip0)">
<path fill-rule="evenodd" clip-rule="evenodd" d="M3.5 28C3.5 21.5022 6.08124 15.2705 10.6759 10.6759C15.2705 6.08124 21.5022 3.5 28 3.5C34.4978 3.5 40.7295 6.08124 45.3241 10.6759C49.9188 15.2705 52.5 21.5022 52.5 28C52.5 34.4978 49.9188 40.7295 45.3241 45.3241C40.7295 49.9188 34.4978 52.5 28 52.5C21.5022 52.5 15.2705 49.9188 10.6759 45.3241C6.08124 40.7295 3.5 34.4978 3.5 28ZM1.22392e-06 28C1.54852e-06 20.5739 2.94999 13.452 8.20101 8.20101C13.452 2.94999 20.5739 -1.54852e-06 28 -1.22392e-06C35.4261 -8.99315e-07 42.548 2.94999 47.799 8.20101C53.05 13.452 56 20.5739 56 28C56 35.4261 53.05 42.548 47.799 47.799C42.548 53.05 35.4261 56 28 56C20.5739 56 13.452 53.05 8.20101 47.799C2.94999 42.548 8.99315e-07 35.4261 1.22392e-06 28Z" fill="black" fill-opacity="0.7"/>
<path d="M3.5 28C3.5 21.5022 6.08124 15.2705 10.6759 10.6759C15.2705 6.08124 21.5022 3.5 28 3.5C34.4978 3.5 40.7295 6.08124 45.3241 10.6759C49.9188 15.2705 52.5 21.5022 52.5 28C52.5 34.4978 49.9188 40.7295 45.3241 45.3241C40.7295 49.9188 34.4978 52.5 28 52.5C21.5022 52.5 15.2705 49.9188 10.6759 45.3241C6.08124 40.7295 3.5 34.4978 3.5 28Z" fill="black" fill-opacity="0.7"/>
<path fill-rule="evenodd" clip-rule="evenodd" d="M26.7613 39.739C26.5983 39.5765 26.469 39.3834 26.3808 39.1708C26.2926 38.9582 26.2472 38.7302 26.2472 38.5C26.2472 38.2699 26.2926 38.0419 26.3808 37.8293C26.469 37.6167 26.5983 37.4236 26.7613 37.261L36.0258 28L26.7613 18.739C26.4327 18.4104 26.2481 17.9648 26.2481 17.5C26.2481 17.0353 26.4327 16.5896 26.7613 16.261C27.0899 15.9324 27.5356 15.7478 28.0003 15.7478C28.465 15.7478 28.9107 15.9324 29.2393 16.261L39.7393 26.761C39.9023 26.9236 40.0316 27.1167 40.1198 27.3293C40.208 27.5419 40.2534 27.7699 40.2534 28C40.2534 28.2302 40.208 28.4582 40.1198 28.6708C40.0316 28.8834 39.9023 29.0765 39.7393 29.239L29.2393 39.739C29.0767 39.902 28.8836 40.0313 28.671 40.1195C28.4584 40.2078 28.2305 40.2532 28.0003 40.2532C27.7701 40.2532 27.5422 40.2078 27.3296 40.1195C27.117 40.0313 26.9238 39.902 26.7613 39.739Z" fill="white"/>
<path fill-rule="evenodd" clip-rule="evenodd" d="M15.75 28C15.75 27.5359 15.9344 27.0907 16.2626 26.7626C16.5908 26.4344 17.0359 26.25 17.5 26.25L35 26.25C35.4641 26.25 35.9092 26.4344 36.2374 26.7626C36.5656 27.0907 36.75 27.5359 36.75 28C36.75 28.4641 36.5656 28.9092 36.2374 29.2374C35.9092 29.5656 35.4641 29.75 35 29.75L17.5 29.75C17.0359 29.75 16.5908 29.5656 16.2626 29.2374C15.9344 28.9092 15.75 28.4641 15.75 28Z" fill="white"/>
</g>
<defs>
<clipPath id="clip0">
<rect width="56" height="56" fill="white" transform="matrix(4.37114e-08 -1 -1 -4.37114e-08 56 56)"/>
</clipPath>
</defs>
</svg>
