<svg width="56" height="56" viewBox="0 0 56 56" fill="none" xmlns="http://www.w3.org/2000/svg">
<g clip-path="url(#clip0)">
<path fill-rule="evenodd" clip-rule="evenodd" d="M52.5 28C52.5 21.5022 49.9188 15.2705 45.3241 10.6759C40.7295 6.08124 34.4978 3.5 28 3.5C21.5022 3.5 15.2705 6.08124 10.6759 10.6759C6.08124 15.2705 3.5 21.5022 3.5 28C3.5 34.4978 6.08124 40.7295 10.6759 45.3241C15.2705 49.9188 21.5022 52.5 28 52.5C34.4978 52.5 40.7295 49.9188 45.3241 45.3241C49.9188 40.7295 52.5 34.4978 52.5 28ZM56 28C56 20.5739 53.05 13.452 47.799 8.20101C42.548 2.94999 35.4261 -1.54852e-06 28 -1.22392e-06C20.5739 -8.99315e-07 13.452 2.94999 8.20101 8.20101C2.94999 13.452 -1.54852e-06 20.5739 -1.22392e-06 28C-8.99315e-07 35.4261 2.94999 42.548 8.20101 47.799C13.452 53.05 20.5739 56 28 56C35.4261 56 42.548 53.05 47.799 47.799C53.05 42.548 56 35.4261 56 28Z" fill="black" fill-opacity="0.7"/>
<path d="M52.5 28C52.5 21.5022 49.9188 15.2705 45.3241 10.6759C40.7295 6.08124 34.4978 3.5 28 3.5C21.5022 3.5 15.2705 6.08124 10.6759 10.6759C6.08124 15.2705 3.5 21.5022 3.5 28C3.5 34.4978 6.08124 40.7295 10.6759 45.3241C15.2705 49.9188 21.5022 52.5 28 52.5C34.4978 52.5 40.7295 49.9188 45.3241 45.3241C49.9188 40.7295 52.5 34.4978 52.5 28Z" fill="black" fill-opacity="0.7"/>
<path fill-rule="evenodd" clip-rule="evenodd" d="M29.2387 39.739C29.4017 39.5765 29.531 39.3834 29.6192 39.1708C29.7074 38.9582 29.7528 38.7302 29.7528 38.5C29.7528 38.2699 29.7074 38.0419 29.6192 37.8293C29.531 37.6167 29.4017 37.4236 29.2387 37.261L19.9742 28L29.2387 18.739C29.5673 18.4104 29.7519 17.9648 29.7519 17.5C29.7519 17.0353 29.5673 16.5896 29.2387 16.261C28.9101 15.9324 28.4644 15.7478 27.9997 15.7478C27.535 15.7478 27.0893 15.9324 26.7607 16.261L16.2607 26.761C16.0977 26.9236 15.9684 27.1167 15.8802 27.3293C15.792 27.5419 15.7466 27.7699 15.7466 28C15.7466 28.2302 15.792 28.4582 15.8802 28.6708C15.9684 28.8834 16.0977 29.0765 16.2607 29.239L26.7607 39.739C26.9233 39.902 27.1164 40.0313 27.329 40.1195C27.5416 40.2078 27.7695 40.2532 27.9997 40.2532C28.2299 40.2532 28.4578 40.2078 28.6704 40.1195C28.883 40.0313 29.0762 39.902 29.2387 39.739Z" fill="white"/>
<path fill-rule="evenodd" clip-rule="evenodd" d="M40.25 28C40.25 27.5359 40.0656 27.0907 39.7374 26.7626C39.4092 26.4344 38.9641 26.25 38.5 26.25L21 26.25C20.5359 26.25 20.0908 26.4344 19.7626 26.7626C19.4344 27.0907 19.25 27.5359 19.25 28C19.25 28.4641 19.4344 28.9092 19.7626 29.2374C20.0908 29.5656 20.5359 29.75 21 29.75L38.5 29.75C38.9641 29.75 39.4092 29.5656 39.7374 29.2374C40.0656 28.9092 40.25 28.4641 40.25 28Z" fill="white"/>
</g>
<defs>
<clipPath id="clip0">
<rect width="56" height="56" fill="white" transform="translate(0 56) rotate(-90)"/>
</clipPath>
</defs>
</svg>
