<svg width="32" height="30" viewBox="0 0 32 30" fill="none" xmlns="http://www.w3.org/2000/svg">
<path d="M10.7993 29.3843C12.18 29.3843 13.2993 28.265 13.2993 26.8843C13.2993 25.5036 12.18 24.3843 10.7993 24.3843C9.4186 24.3843 8.29932 25.5036 8.29932 26.8843C8.29932 28.265 9.4186 29.3843 10.7993 29.3843Z" fill="#585858"/>
<path d="M23.7993 29.3843C25.18 29.3843 26.2993 28.265 26.2993 26.8843C26.2993 25.5036 25.18 24.3843 23.7993 24.3843C22.4186 24.3843 21.2993 25.5036 21.2993 26.8843C21.2993 28.265 22.4186 29.3843 23.7993 29.3843Z" fill="#585858"/>
<path d="M6.50931 3.3843H31.7993L27.4193 17.6243C27.3646 17.8462 27.2355 18.0426 27.0535 18.1809C26.8716 18.3192 26.6477 18.391 26.4193 18.3843H10.9893L8.5793 20.3843C8.52249 20.4845 8.49248 20.5977 8.49218 20.713C8.49188 20.8282 8.5213 20.9415 8.5776 21.0421C8.6339 21.1426 8.71517 21.2269 8.81356 21.2869C8.91196 21.3468 9.02415 21.3804 9.13931 21.3843H25.9893C26.2545 21.3843 26.5089 21.4897 26.6964 21.6772C26.8839 21.8647 26.9893 22.1191 26.9893 22.3843C26.9893 22.6495 26.8839 22.9039 26.6964 23.0914C26.5089 23.2789 26.2545 23.3843 25.9893 23.3843H9.2993C8.8707 23.4055 8.44308 23.3261 8.05064 23.1525C7.65821 22.9788 7.31186 22.7158 7.0393 22.3843C6.65874 21.899 6.45863 21.2965 6.47323 20.68C6.48782 20.0634 6.7162 19.4711 7.1193 19.0043L7.2493 18.8743L8.8793 17.5343L4.2993 3.0643L0.709305 1.9643C0.454697 1.88606 0.241597 1.70989 0.116886 1.47453C-0.00782592 1.23917 -0.0339341 0.963911 0.0443047 0.709303C0.122544 0.454696 0.298721 0.241596 0.534079 0.116884C0.650616 0.0551333 0.778176 0.0169408 0.909473 0.00448732C1.04077 -0.00796615 1.17324 0.0055635 1.2993 0.0443035L5.39931 1.3043C5.55358 1.35139 5.69418 1.43509 5.80911 1.54827C5.92403 1.66146 6.00987 1.80076 6.05931 1.9543L6.50931 3.3843Z" fill="#585858"/>
</svg>
