<svg width="40" height="40" viewBox="0 0 40 40" fill="none" xmlns="http://www.w3.org/2000/svg">
<path fill-rule="evenodd" clip-rule="evenodd" d="M10.7071 9.29289C10.3166 8.90237 9.68342 8.90237 9.29289 9.29289C8.90237 9.68342 8.90237 10.3166 9.29289 10.7071L18.5874 20.0016L9.29289 29.296C8.90237 29.6866 8.90237 30.3197 9.29289 30.7102C9.68342 31.1008 10.3166 31.1008 10.7071 30.7102L20.0016 21.4158L29.296 30.7102C29.6866 31.1008 30.3197 31.1008 30.7102 30.7102C31.1008 30.3197 31.1008 29.6866 30.7102 29.296L21.4158 20.0016L30.7102 10.7071C31.1008 10.3166 31.1008 9.68342 30.7102 9.29289C30.3197 8.90237 29.6866 8.90237 29.296 9.29289L20.0016 18.5874L10.7071 9.29289Z" fill="#393939"/>
</svg>
