<svg width="32" height="32" viewBox="0 0 32 32" fill="none" xmlns="http://www.w3.org/2000/svg">
<rect width="32" height="32" rx="16" fill="#393939" fill-opacity="0.8"/>
<path fill-rule="evenodd" clip-rule="evenodd" d="M18.235 22V17.353H19.795L20.0284 15.5422H18.2344V14.386C18.2344 13.8616 18.3802 13.504 19.1326 13.504H20.0914V11.884C19.6271 11.8346 19.1604 11.8106 18.6934 11.812C17.311 11.812 16.3648 12.6562 16.3648 14.206V15.5422H14.8V17.353H16.3642V22H10.6624C10.2964 22 10 21.7036 10 21.3376V10.6624C10 10.2964 10.2964 10 10.6624 10H21.3376C21.7036 10 22 10.2964 22 10.6624V21.3376C22 21.7036 21.7036 22 21.3376 22H18.235Z" fill="white"/>
</svg>
