<svg width="40" height="40" viewBox="0 0 40 40" fill="none" xmlns="http://www.w3.org/2000/svg">
<rect width="40" height="40" rx="20" fill="#393939"/>
<path d="M28 12.5H12C11.4696 12.5 10.9609 12.6975 10.5858 13.0492C10.2107 13.4008 10 13.8777 10 14.375V25.625C10 26.1223 10.2107 26.5992 10.5858 26.9508C10.9609 27.3025 11.4696 27.5 12 27.5H28C28.5304 27.5 29.0391 27.3025 29.4142 26.9508C29.7893 26.5992 30 26.1223 30 25.625V14.375C30 13.8777 29.7893 13.4008 29.4142 13.0492C29.0391 12.6975 28.5304 12.5 28 12.5V12.5ZM28 16.4713L20 21.0481L12 16.4713V14.375H28V16.4713Z" fill="white"/>
</svg>
