<svg width="40" height="40" viewBox="0 0 40 40" fill="none" xmlns="http://www.w3.org/2000/svg">
<rect width="40" height="40" rx="20" fill="#393939"/>
<path fill-rule="evenodd" clip-rule="evenodd" d="M23.2594 28.75V21.9731H25.5344L25.8748 19.3324H23.2585V17.6463C23.2585 16.8815 23.4711 16.36 24.5684 16.36H25.9666V13.9975C25.2895 13.9254 24.6089 13.8904 23.9279 13.8925C21.9119 13.8925 20.532 15.1236 20.532 17.3837V19.3324H18.25V21.9731H20.5311V28.75H12.216C11.6823 28.75 11.25 28.3177 11.25 27.784V12.216C11.25 11.6823 11.6823 11.25 12.216 11.25H27.784C28.3177 11.25 28.75 11.6823 28.75 12.216V27.784C28.75 28.3177 28.3177 28.75 27.784 28.75H23.2594Z" fill="white"/>
</svg>
