<svg width="40" height="40" viewBox="0 0 40 40" fill="none" xmlns="http://www.w3.org/2000/svg">
<rect width="40" height="40" rx="20" fill="#393939"/>
<path d="M19.9976 17.0821C18.391 17.0821 17.0798 18.3933 17.0798 20C17.0798 21.6067 18.391 22.9179 19.9976 22.9179C21.6043 22.9179 22.9155 21.6067 22.9155 20C22.9155 18.3933 21.6043 17.0821 19.9976 17.0821ZM28.749 20C28.749 18.7917 28.76 17.5943 28.6921 16.3882C28.6243 14.9872 28.3047 13.7439 27.2802 12.7195C26.2536 11.6928 25.0125 11.3754 23.6116 11.3076C22.4033 11.2397 21.2059 11.2507 19.9998 11.2507C18.7915 11.2507 17.5942 11.2397 16.3881 11.3076C14.9872 11.3754 13.7439 11.695 12.7194 12.7195C11.6928 13.7461 11.3754 14.9872 11.3076 16.3882C11.2397 17.5965 11.2507 18.7939 11.2507 20C11.2507 21.2061 11.2397 22.4057 11.3076 23.6118C11.3754 25.0128 11.695 26.2561 12.7194 27.2805C13.746 28.3072 14.9872 28.6246 16.3881 28.6924C17.5964 28.7603 18.7937 28.7493 19.9998 28.7493C21.2081 28.7493 22.4055 28.7603 23.6116 28.6924C25.0125 28.6246 26.2558 28.305 27.2802 27.2805C28.3069 26.2539 28.6243 25.0128 28.6921 23.6118C28.7622 22.4057 28.749 21.2083 28.749 20V20ZM19.9976 24.4896C17.5132 24.4896 15.5081 22.4845 15.5081 20C15.5081 17.5155 17.5132 15.5104 19.9976 15.5104C22.4821 15.5104 24.4872 17.5155 24.4872 20C24.4872 22.4845 22.4821 24.4896 19.9976 24.4896ZM24.671 16.3751C24.091 16.3751 23.6225 15.9066 23.6225 15.3265C23.6225 14.7465 24.091 14.278 24.671 14.278C25.2511 14.278 25.7195 14.7465 25.7195 15.3265C25.7197 15.4643 25.6927 15.6007 25.6401 15.728C25.5874 15.8553 25.5102 15.9709 25.4128 16.0683C25.3154 16.1657 25.1998 16.243 25.0725 16.2956C24.9452 16.3482 24.8088 16.3752 24.671 16.3751V16.3751Z" fill="white"/>
</svg>
