<svg width="32" height="32" viewBox="0 0 32 32" fill="none" xmlns="http://www.w3.org/2000/svg">
<rect width="32" height="32" rx="16" fill="#393939" fill-opacity="0.8"/>
<path d="M15.9984 13.9991C14.8967 13.9991 13.9976 14.8983 13.9976 16C13.9976 17.1017 14.8967 18.0009 15.9984 18.0009C17.1001 18.0009 17.9992 17.1017 17.9992 16C17.9992 14.8983 17.1001 13.9991 15.9984 13.9991ZM21.9993 16C21.9993 15.1714 22.0068 14.3504 21.9603 13.5233C21.9138 12.5627 21.6946 11.7101 20.9922 11.0076C20.2882 10.3037 19.4371 10.086 18.4765 10.0395C17.648 9.99294 16.8269 10.0004 15.9999 10.0004C15.1713 10.0004 14.3503 9.99294 13.5233 10.0395C12.5626 10.086 11.7101 10.3052 11.0076 11.0076C10.3036 11.7116 10.086 12.5627 10.0395 13.5233C9.99294 14.3519 10.0004 15.1729 10.0004 16C10.0004 16.8271 9.99294 17.6496 10.0395 18.4767C10.086 19.4373 10.3051 20.2899 11.0076 20.9924C11.7116 21.6963 12.5626 21.914 13.5233 21.9605C14.3518 22.0071 15.1728 21.9996 15.9999 21.9996C16.8284 21.9996 17.6495 22.0071 18.4765 21.9605C19.4371 21.914 20.2897 21.6948 20.9922 20.9924C21.6961 20.2884 21.9138 19.4373 21.9603 18.4767C22.0083 17.6496 21.9993 16.8286 21.9993 16ZM15.9984 19.0786C14.2948 19.0786 12.9199 17.7037 12.9199 16C12.9199 14.2963 14.2948 12.9214 15.9984 12.9214C17.702 12.9214 19.0769 14.2963 19.0769 16C19.0769 17.7037 17.702 19.0786 15.9984 19.0786ZM19.203 13.5143C18.8052 13.5143 18.484 13.1931 18.484 12.7953C18.484 12.3976 18.8052 12.0763 19.203 12.0763C19.6008 12.0763 19.922 12.3976 19.922 12.7953C19.9221 12.8898 19.9036 12.9833 19.8675 13.0706C19.8314 13.1579 19.7784 13.2372 19.7116 13.304C19.6449 13.3708 19.5656 13.4237 19.4783 13.4598C19.391 13.4959 19.2974 13.5144 19.203 13.5143Z" fill="white"/>
</svg>
