<svg width="32" height="32" viewBox="0 0 32 32" fill="none" xmlns="http://www.w3.org/2000/svg">
<rect width="32" height="32" rx="16" fill="#393939" fill-opacity="0.8"/>
<path d="M21.6 11H10.4C10.0287 11 9.6726 11.1317 9.41005 11.3661C9.1475 11.6005 9 11.9185 9 12.25V19.75C9 20.0815 9.1475 20.3995 9.41005 20.6339C9.6726 20.8683 10.0287 21 10.4 21H21.6C21.9713 21 22.3274 20.8683 22.5899 20.6339C22.8525 20.3995 23 20.0815 23 19.75V12.25C23 11.9185 22.8525 11.6005 22.5899 11.3661C22.3274 11.1317 21.9713 11 21.6 11ZM21.6 13.6475L16 16.6988L10.4 13.6475V12.25H21.6V13.6475Z" fill="white"/>
</svg>
